<?xml version="1.0" encoding="UTF-8"?>
<svg width="700pt" height="700pt" version="1.1" viewBox="0 0 700 700" xmlns="http://www.w3.org/2000/svg" xmlns:xlink="http://www.w3.org/1999/xlink">
 <defs>
  <symbol id="m" overflow="visible">
   <path d="m29.312-1.75c-1.5117 0.78125-3.0898 1.3711-4.7344 1.7656-1.6367 0.40625-3.3398 0.60938-5.1094 0.60938-5.3125 0-9.5273-1.4844-12.641-4.4531-3.1055-2.9688-4.6562-7-4.6562-12.094s1.5508-9.125 4.6562-12.094c3.1133-2.9688 7.3281-4.4531 12.641-4.4531 1.7695 0 3.4727 0.19922 5.1094 0.59375 1.6445 0.39844 3.2227 0.99219 4.7344 1.7812v6.5938c-1.5312-1.0391-3.0391-1.8008-4.5156-2.2812-1.4805-0.48828-3.0391-0.73438-4.6719-0.73438-2.9375 0-5.2461 0.94531-6.9219 2.8281-1.6797 1.875-2.5156 4.4648-2.5156 7.7656 0 3.293 0.83594 5.8828 2.5156 7.7656 1.6758 1.875 3.9844 2.8125 6.9219 2.8125 1.6328 0 3.1914-0.23828 4.6719-0.71875 1.4766-0.48828 2.9844-1.2539 4.5156-2.2969z"/>
  </symbol>
  <symbol id="h" overflow="visible">
   <path d="m21.453-17.406c-0.67969-0.3125-1.3516-0.53906-2.0156-0.6875-0.65625-0.15625-1.3203-0.23438-1.9844-0.23438-1.9688 0-3.4844 0.63281-4.5469 1.8906-1.0547 1.2617-1.5781 3.0703-1.5781 5.4219v11.016h-7.6562v-23.922h7.6562v3.9219c0.97656-1.5625 2.1016-2.7031 3.375-3.4219 1.2812-0.71875 2.8125-1.0781 4.5938-1.0781 0.25 0 0.52344 0.011719 0.82812 0.03125 0.30078 0.023438 0.73438 0.070312 1.2969 0.14062z"/>
  </symbol>
  <symbol id="c" overflow="visible">
   <path d="m27.562-12.031v2.1875h-17.891c0.1875 1.793 0.83203 3.1367 1.9375 4.0312 1.1133 0.89844 2.6719 1.3438 4.6719 1.3438 1.6016 0 3.25-0.23438 4.9375-0.70312 1.6875-0.47656 3.4219-1.2031 5.2031-2.1719v5.8906c-1.8047 0.6875-3.6094 1.2031-5.4219 1.5469-1.8125 0.35156-3.6211 0.53125-5.4219 0.53125-4.3359 0-7.7031-1.0977-10.109-3.2969-2.3984-2.207-3.5938-5.2969-3.5938-9.2656 0-3.9062 1.1758-6.9727 3.5312-9.2031 2.3633-2.2383 5.6094-3.3594 9.7344-3.3594 3.7578 0 6.7695 1.1367 9.0312 3.4062 2.2578 2.2617 3.3906 5.2812 3.3906 9.0625zm-7.8594-2.5312c0-1.457-0.42969-2.6289-1.2812-3.5156-0.84375-0.89453-1.9492-1.3438-3.3125-1.3438-1.4922 0-2.6992 0.41797-3.625 1.25-0.91797 0.83594-1.4922 2.0391-1.7188 3.6094z"/>
  </symbol>
  <symbol id="b" overflow="visible">
   <path d="m14.391-10.766c-1.5938 0-2.793 0.27344-3.5938 0.8125-0.80469 0.54297-1.2031 1.3398-1.2031 2.3906 0 0.96875 0.32031 1.7305 0.96875 2.2812 0.64453 0.54297 1.5469 0.8125 2.7031 0.8125 1.4375 0 2.6445-0.51562 3.625-1.5469 0.98828-1.0312 1.4844-2.3203 1.4844-3.875v-0.875zm11.688-2.8906v13.656h-7.7031v-3.5469c-1.0312 1.4492-2.1875 2.5078-3.4688 3.1719s-2.8398 1-4.6719 1c-2.4805 0-4.4961-0.72266-6.0469-2.1719-1.543-1.4453-2.3125-3.3203-2.3125-5.625 0-2.8125 0.96094-4.8672 2.8906-6.1719 1.9375-1.3125 4.9688-1.9688 9.0938-1.9688h4.5156v-0.60938c0-1.207-0.48047-2.0938-1.4375-2.6562-0.94922-0.5625-2.4375-0.84375-4.4688-0.84375-1.6367 0-3.1562 0.16797-4.5625 0.5-1.4062 0.32422-2.7188 0.8125-3.9375 1.4688v-5.8281c1.6445-0.40625 3.2891-0.70703 4.9375-0.90625 1.6562-0.20703 3.3047-0.3125 4.9531-0.3125 4.3203 0 7.4375 0.85547 9.3438 2.5625 1.9141 1.6992 2.875 4.4609 2.875 8.2812z"/>
  </symbol>
  <symbol id="a" overflow="visible">
   <path d="m12.031-30.719v6.7969h7.875v5.4688h-7.875v10.141c0 1.1172 0.21875 1.8711 0.65625 2.2656 0.4375 0.38672 1.3125 0.57812 2.625 0.57812h3.9375v5.4688h-6.5625c-3.0234 0-5.1641-0.62891-6.4219-1.8906-1.2617-1.2578-1.8906-3.3984-1.8906-6.4219v-10.141h-3.7969v-5.4688h3.7969v-6.7969z"/>
  </symbol>
  <symbol id="g" overflow="visible">
   <path d="m19.953-20.422v-12.812h7.6875v33.234h-7.6875v-3.4531c-1.0547 1.4062-2.2148 2.4375-3.4844 3.0938-1.2734 0.65625-2.7422 0.98438-4.4062 0.98438-2.9492 0-5.3711-1.1719-7.2656-3.5156-1.8867-2.3438-2.8281-5.3594-2.8281-9.0469s0.94141-6.7031 2.8281-9.0469c1.8945-2.3438 4.3164-3.5156 7.2656-3.5156 1.6562 0 3.1172 0.33594 4.3906 1 1.2812 0.65625 2.4453 1.6836 3.5 3.0781zm-5.0469 15.484c1.6445 0 2.8945-0.59766 3.75-1.7969 0.86328-1.1953 1.2969-2.9297 1.2969-5.2031 0-2.2812-0.43359-4.0195-1.2969-5.2188-0.85547-1.1953-2.1055-1.7969-3.75-1.7969-1.625 0-2.8711 0.60156-3.7344 1.7969-0.85547 1.1992-1.2812 2.9375-1.2812 5.2188 0 2.2734 0.42578 4.0078 1.2812 5.2031 0.86328 1.1992 2.1094 1.7969 3.7344 1.7969z"/>
  </symbol>
  <symbol id="f" overflow="visible">
   <path d="m16.406-4.9375c1.6328 0 2.8828-0.59766 3.75-1.7969 0.86328-1.1953 1.2969-2.9297 1.2969-5.2031 0-2.2812-0.43359-4.0195-1.2969-5.2188-0.86719-1.1953-2.1172-1.7969-3.75-1.7969-1.6367 0-2.8906 0.60547-3.7656 1.8125-0.875 1.1992-1.3125 2.9336-1.3125 5.2031 0 2.2617 0.4375 3.9961 1.3125 5.2031 0.875 1.1992 2.1289 1.7969 3.7656 1.7969zm-5.0781-15.484c1.0508-1.3945 2.2188-2.4219 3.5-3.0781 1.2812-0.66406 2.7539-1 4.4219-1 2.9453 0 5.3672 1.1719 7.2656 3.5156 1.8945 2.3438 2.8438 5.3594 2.8438 9.0469s-0.94922 6.7031-2.8438 9.0469c-1.8984 2.3438-4.3203 3.5156-7.2656 3.5156-1.668 0-3.1406-0.33594-4.4219-1s-2.4492-1.6914-3.5-3.0781v3.4531h-7.6562v-33.234h7.6562z"/>
  </symbol>
  <symbol id="e" overflow="visible">
   <path d="m0.53125-23.922h7.6562l6.4219 16.234 5.4688-16.234h7.6562l-10.062 26.188c-1.0117 2.6641-2.1953 4.5234-3.5469 5.5781-1.3438 1.0625-3.1211 1.5938-5.3281 1.5938h-4.4219v-5.0156h2.3906c1.3008 0 2.2422-0.21094 2.8281-0.625 0.59375-0.40625 1.0547-1.1484 1.3906-2.2188l0.20312-0.65625z"/>
  </symbol>
  <symbol id="d" overflow="visible">
   <path d="m3.4219-9.3125v-14.609h7.6875v2.3906c0 1.293-0.011719 2.918-0.03125 4.875-0.011719 1.9609-0.015625 3.2656-0.015625 3.9219 0 1.9297 0.046875 3.3125 0.14062 4.1562 0.10156 0.84375 0.28125 1.4609 0.53125 1.8438 0.3125 0.5 0.71875 0.88672 1.2188 1.1562 0.50781 0.27344 1.0938 0.40625 1.75 0.40625 1.5938 0 2.8438-0.60938 3.75-1.8281 0.91406-1.2266 1.375-2.9297 1.375-5.1094v-11.812h7.6406v23.922h-7.6406v-3.4531c-1.1562 1.3867-2.3828 2.4141-3.6719 3.0781-1.2812 0.66406-2.6992 1-4.25 1-2.7734 0-4.8828-0.84766-6.3281-2.5469-1.4375-1.6953-2.1562-4.1602-2.1562-7.3906z"/>
  </symbol>
  <symbol id="l" overflow="visible">
   <path d="m3.6719-33.234h7.6562v33.234h-7.6562z"/>
  </symbol>
  <symbol id="k" overflow="visible">
   <path d="m11.328-3.4531v12.547h-7.6562v-33.016h7.6562v3.5c1.0508-1.3945 2.2188-2.4219 3.5-3.0781 1.2812-0.66406 2.7539-1 4.4219-1 2.9453 0 5.3672 1.1719 7.2656 3.5156 1.8945 2.3438 2.8438 5.3594 2.8438 9.0469s-0.94922 6.7031-2.8438 9.0469c-1.8984 2.3438-4.3203 3.5156-7.2656 3.5156-1.668 0-3.1406-0.33594-4.4219-1s-2.4492-1.6914-3.5-3.0781zm5.0781-15.5c-1.6367 0-2.8906 0.60547-3.7656 1.8125-0.875 1.1992-1.3125 2.9336-1.3125 5.2031 0 2.2617 0.4375 3.9961 1.3125 5.2031 0.875 1.1992 2.1289 1.7969 3.7656 1.7969 1.6328 0 2.8828-0.59766 3.75-1.7969 0.86328-1.1953 1.2969-2.9297 1.2969-5.2031 0-2.2812-0.43359-4.0195-1.2969-5.2188-0.86719-1.1953-2.1172-1.7969-3.75-1.7969z"/>
  </symbol>
  <symbol id="j" overflow="visible">
   <path d="m27.734-14.562v14.562h-7.7031v-11.109c0-2.0938-0.046875-3.5312-0.14062-4.3125-0.085937-0.78125-0.24219-1.3594-0.46875-1.7344-0.30469-0.5-0.71094-0.88281-1.2188-1.1562-0.51172-0.28125-1.0938-0.42188-1.75-0.42188-1.5938 0-2.8516 0.61719-3.7656 1.8438-0.90625 1.2305-1.3594 2.9375-1.3594 5.125v11.766h-7.6562v-33.234h7.6562v12.812c1.1445-1.3945 2.3633-2.4219 3.6562-3.0781 1.3008-0.66406 2.7383-1 4.3125-1 2.7578 0 4.8516 0.85156 6.2812 2.5469 1.4375 1.6875 2.1562 4.1523 2.1562 7.3906z"/>
  </symbol>
  <symbol id="i" overflow="visible">
   <path d="m27.734-14.562v14.562h-7.7031v-11.156c0-2.0625-0.046875-3.4844-0.14062-4.2656-0.085937-0.78125-0.24219-1.3594-0.46875-1.7344-0.30469-0.5-0.71094-0.88281-1.2188-1.1562-0.51172-0.28125-1.0938-0.42188-1.75-0.42188-1.5938 0-2.8516 0.61719-3.7656 1.8438-0.90625 1.2305-1.3594 2.9375-1.3594 5.125v11.766h-7.6562v-23.922h7.6562v3.5c1.1445-1.3945 2.3633-2.4219 3.6562-3.0781 1.3008-0.66406 2.7383-1 4.3125-1 2.7578 0 4.8516 0.85156 6.2812 2.5469 1.4375 1.6875 2.1562 4.1523 2.1562 7.3906z"/>
  </symbol>
 </defs>
 <g>
  <path d="m358.75 148.75h-17.5c-4.832 0-8.75 3.918-8.75 8.75s3.918 8.75 8.75 8.75h17.5c4.832 0 8.75-3.918 8.75-8.75s-3.918-8.75-8.75-8.75z"/>
  <path d="m341.25 428.75c-4.832 0-8.75 3.918-8.75 8.75s3.918 8.75 8.75 8.75h17.5c4.832 0 8.75-3.918 8.75-8.75s-3.918-8.75-8.75-8.75z"/>
  <path d="m470.66 467.12c-1.6602-2.1289-4.2109-3.375-6.9102-3.375h-12.605c-5.0117-0.011719-9.918-1.4531-14.141-4.1523-4.2188-2.7031-7.5859-6.5547-9.6953-11.102l-38.809-84.09h0.003906c8.6914-1.3086 17.574 0.27344 25.277 4.5117 7.7031 4.2344 13.797 10.887 17.348 18.926 0.13672 0.30078 0.28906 0.59766 0.45703 0.88672l15.871 26.957 0.003907 0.003906c1.5195 2.7539 4.4531 4.418 7.5938 4.3086 3.1211-0.019531 5.9961-1.6992 7.543-4.4102l35-61.25c2.3945-4.1953 0.9375-9.5391-3.2578-11.938-4.1953-2.3945-9.5391-0.9375-11.938 3.2578l-27.512 48.148-7.9766-13.543c-6.1133-13.527-17.219-24.164-30.996-29.691-13.773-5.5273-29.152-5.5117-42.918 0.042969-2.2305 0.89062-3.9922 2.6562-4.8789 4.8867-0.89062 2.2305-0.82422 4.7266 0.18359 6.9023l43.117 93.422c3.5156 7.5781 9.1211 14 16.156 18.5 7.0391 4.5039 15.215 6.9062 23.566 6.9219h8.3242l58.621 75.375c2.9688 3.8164 8.4688 4.5039 12.285 1.5352s4.5039-8.4688 1.5352-12.285z"/>
  <path d="m560 426.1v-93.602c0-1.2266-0.25781-2.4375-0.75781-3.5547l-35-78.75c-0.56641-1.2773-1.4336-2.4023-2.5273-3.2773l-43.75-35c-1.5508-1.2422-3.4766-1.918-5.4648-1.918h-17.5v-61.25c-0.007812-6.9609-2.7773-13.633-7.6953-18.555-4.9219-4.918-11.594-7.6875-18.555-7.6953h-157.5c-6.9609 0.007812-13.633 2.7773-18.555 7.6953-4.918 4.9219-7.6875 11.594-7.6953 18.555v297.5c0.007812 6.9609 2.7773 13.633 7.6953 18.555 4.9219 4.918 11.594 7.6875 18.555 7.6953h105c4.832 0 8.75-3.918 8.75-8.75s-3.918-8.75-8.75-8.75h-105c-4.832-0.003906-8.7461-3.918-8.75-8.75v-26.25h105c4.832 0 8.75-3.918 8.75-8.75s-3.918-8.75-8.75-8.75h-105v-210h175v148.75c0 4.832 3.918 8.75 8.75 8.75s8.75-3.918 8.75-8.75v-70h5.1289l21.121 21.121v22.629c0 4.832 3.918 8.75 8.75 8.75s8.75-3.918 8.75-8.75v-26.25c0-2.3203-0.92188-4.5469-2.5625-6.1875l-26.25-26.25c-1.6406-1.6406-3.8672-2.5625-6.1875-2.5625h-8.75v-26.25h14.434l39.688 31.754 33.379 75.102v94.395c0 1.7266 0.51172 3.418 1.4688 4.8555l70 105c2.7031 3.9648 8.0938 5.0156 12.086 2.3555 3.9961-2.6641 5.0977-8.0469 2.4766-12.066zm-297.5-251.1v-26.25c0.007812-4.8281 3.9219-8.7422 8.75-8.75h157.5c4.8281 0.007812 8.7422 3.9219 8.75 8.75v26.25z"/>
  <path d="m411.25 288.75c0-16.246-6.4531-31.824-17.941-43.309-11.484-11.488-27.062-17.941-43.309-17.941s-31.824 6.4531-43.309 17.941c-11.488 11.484-17.941 27.062-17.941 43.309s6.4531 31.824 17.941 43.309c11.484 11.488 27.062 17.941 43.309 17.941 16.238-0.019531 31.809-6.4766 43.289-17.961 11.484-11.48 17.941-27.051 17.961-43.289zm-61.25-43.75c10.082 0.015625 19.848 3.5039 27.656 9.8789s13.18 15.246 15.211 25.121h-18.23c-2.3906-6.8594-7.5352-12.41-14.195-15.32-6.6562-2.9062-14.227-2.9062-20.883 0-6.6602 2.9102-11.805 8.4609-14.195 15.32h-18.23c2.0312-9.875 7.4023-18.746 15.211-25.121s17.574-9.8633 27.656-9.8789zm8.75 43.75c0 3.5391-2.1328 6.7305-5.4023 8.082-3.2695 1.3555-7.0312 0.60938-9.5352-1.8945s-3.25-6.2656-1.8945-9.5352c1.3516-3.2695 4.543-5.4023 8.082-5.4023 4.832 0.003906 8.7461 3.918 8.75 8.75zm-51.617 8.75h18.23c2.3906 6.8594 7.5352 12.414 14.195 15.32 6.6562 2.9062 14.227 2.9062 20.883 0 6.6602-2.9062 11.805-8.4609 14.195-15.32h18.23c-2.7109 13.277-11.422 24.547-23.582 30.52-12.164 5.9727-26.406 5.9727-38.57 0-12.16-5.9727-20.871-17.242-23.582-30.52z"/>
  <path d="m280 367.5c0 2.3203 0.92188 4.5469 2.5625 6.1875s3.8672 2.5625 6.1875 2.5625h17.5c4.832 0 8.75-3.918 8.75-8.75s-3.918-8.75-8.75-8.75h-8.75v-8.75c0-4.832-3.918-8.75-8.75-8.75s-8.75 3.918-8.75 8.75z"/>
  <path d="m411.25 236.25c2.3203 0 4.5469-0.92188 6.1875-2.5625s2.5625-3.8672 2.5625-6.1875v-17.5c0-2.3203-0.92188-4.5469-2.5625-6.1875s-3.8672-2.5625-6.1875-2.5625h-17.5c-4.832 0-8.75 3.918-8.75 8.75s3.918 8.75 8.75 8.75h8.75v8.75c0 2.3203 0.92188 4.5469 2.5625 6.1875s3.8672 2.5625 6.1875 2.5625z"/>
  <path d="m288.75 236.25c2.3203 0 4.5469-0.92188 6.1875-2.5625s2.5625-3.8672 2.5625-6.1875v-8.75h8.75c4.832 0 8.75-3.918 8.75-8.75s-3.918-8.75-8.75-8.75h-17.5c-4.832 0-8.75 3.918-8.75 8.75v17.5c0 2.3203 0.92188 4.5469 2.5625 6.1875s3.8672 2.5625 6.1875 2.5625z"/>
  <path d="m213.57 123.26c-2.7422-1.2227-5.9219-0.95703-8.4258 0.70703-13.98 10.582-24.637 24.953-30.695 41.41-8.7461-16.219-23.488-28.375-41.074-33.867-3.5078-0.87891-7.1953 0.49219-9.2773 3.4453-2.082 2.957-2.1328 6.8867-0.12891 9.8984 6.7188 10.117 8.1953 22.84 3.9766 34.23l-26.441-19.832-0.003906-0.003906c-2.9609-2.2227-7.0039-2.3398-10.09-0.28906-3.0859 2.0469-4.5469 5.8203-3.6484 9.4141l8.75 35c1.1719 4.6875 5.9219 7.5352 10.613 6.3633 4.6875-1.1719 7.5352-5.9219 6.3633-10.613l-2.7734-11.09 15.285 11.465c1.9297 1.4297 4.3555 2.0195 6.7266 1.625 2.3711-0.40625 4.4688-1.7695 5.8047-3.7734 7.0352-11.387 10.184-24.75 8.9727-38.082 9.9648 9.2617 16.609 21.539 18.918 34.949 0.81641 4.082 4.4023 7.0234 8.5703 7.0273h0.007812c4.1641-0.003906 7.7539-2.9375 8.5781-7.0195 3.582-16.273 10.426-31.652 20.121-45.203l6.3906 44.715c0.69141 4.7734 5.1211 8.0859 9.8984 7.4023 4.7734-0.68359 8.0938-5.1016 7.4219-9.8789l-8.75-61.25c-0.42188-2.9766-2.3438-5.5234-5.0898-6.75z"/>
  <path d="m592.88 200.99c4.6914 1.1719 9.4414-1.6797 10.613-6.3633l8.75-35c0.89844-3.5938-0.5625-7.3672-3.6484-9.4141-3.0859-2.0508-7.1289-1.9336-10.09 0.28906l-26.43 19.82c-4.2109-11.383-2.7383-24.094 3.9609-34.215 2.0039-3.0117 1.9531-6.9414-0.12891-9.8984-2.082-2.9531-5.7695-4.3242-9.2773-3.4453-17.586 5.4922-32.328 17.648-41.074 33.867-6.0586-16.457-16.715-30.828-30.695-41.41-2.5-1.668-5.6836-1.9336-8.4258-0.70703-2.7461 1.2266-4.6641 3.7734-5.0898 6.75l-8.75 61.25c-0.67188 4.7773 2.6484 9.1953 7.4219 9.8789 4.7773 0.68359 9.207-2.6289 9.8984-7.4023l6.3906-44.715c9.6953 13.551 16.539 28.93 20.121 45.203 0.82422 4.082 4.4141 7.0195 8.5781 7.0195h0.007812c4.168-0.003906 7.7539-2.9453 8.5703-7.0273 2.3008-13.426 8.9492-25.719 18.926-34.992-1.2227 13.344 1.9258 26.727 8.9648 38.129 1.3359 2 3.4336 3.3672 5.8047 3.7695 2.3711 0.40625 4.8047-0.17969 6.7266-1.625l15.281-11.465-2.7734 11.09h0.003907c-1.1719 4.6914 1.6758 9.4414 6.3633 10.613z"/>
  <path d="m94.125 341.52c-2.8438 0.70703-5.1406 2.793-6.1211 5.5547-0.98047 2.7656-0.51172 5.832 1.2461 8.1758l26.25 35c1.3906 1.8633 3.4648 3.0977 5.7656 3.4297 2.2969 0.33203 4.6367-0.26562 6.4961-1.6562 1.8594-1.3945 3.0859-3.4727 3.4141-5.7734 0.32422-2.3008-0.27734-4.6367-1.6758-6.4922l-17.324-23.105h-0.003906c10.828-1.3672 21.758 1.6133 30.391 8.2891 2.8203 2.8203 7.1875 3.3789 10.625 1.3594 3.4375-2.0234 5.0742-6.1133 3.9766-9.9492l-13.621-47.68c16.266 5.3398 43.527 22.449 49 77.203 0.44922 4.4688 4.207 7.875 8.6992 7.8789 0.28906 0 0.58594-0.015625 0.87891-0.042969 4.8086-0.48047 8.3164-4.7695 7.8359-9.5781-9.4297-94.285-78.016-95.379-78.707-95.379-2.7461 0-5.332 1.2852-6.9844 3.4766-1.6562 2.1953-2.1836 5.0352-1.4297 7.6758l11.848 41.477c-13.355-3.0117-27.219-2.9648-40.559 0.13672z"/>
  <path d="m169.5 438.12c-2.8984-1.1602-6.1992-0.6875-8.6562 1.2461-2.457 1.9297-3.6953 5.0234-3.2539 8.1172l5.5547 38.906c-21.078-9.2656-43.871-14-66.895-13.895-3.8555 0-7.2578 2.5234-8.375 6.2148s0.3125 7.6758 3.5195 9.8164c23.02 15.348 31.289 47.039 31.367 47.355h0.003906c1.1953 4.6641 5.9336 7.4844 10.602 6.3125 4.6719-1.168 7.5195-5.8945 6.3711-10.57-4.0078-14.375-10.699-27.863-19.715-39.758 18.27 2.6328 39.707 8.5039 47.699 20.48l-0.003906 0.003907c2.2656 3.4023 6.5859 4.7812 10.406 3.3203 3.8164-1.457 6.1172-5.3672 5.5352-9.4141l-6.1523-43.082v-0.003907c17.512 13.27 29.199 32.809 32.613 54.508 0.79297 4.7695 5.2969 7.9883 10.062 7.1953 4.7695-0.79297 7.9883-5.2969 7.1953-10.062-5.2227-33.648-26.953-62.441-57.879-76.691z"/>
  <path d="m282.56 111.19c3.4258 3.3633 8.9219 3.3359 12.316-0.058594 3.3945-3.3945 3.4219-8.8906 0.058594-12.316l-96.25-96.25c-1.6953-1.6562-3.9805-2.5781-6.3516-2.5625-2.375 0.046875-4.6289 1.0547-6.25 2.793l-113.75 122.5c-3.2734 3.543-3.0664 9.0703 0.47266 12.355 3.5352 3.2852 9.0625 3.0859 12.355-0.44141l107.57-115.85z"/>
  <path d="m440.06 111.19c1.6406 1.6406 3.8672 2.5625 6.1875 2.5625s4.5469-0.92188 6.1875-2.5625l81.312-81.316 81.312 81.312v0.003906c1.6367 1.6562 3.8711 2.5938 6.1992 2.6016 2.3281 0.007813 4.5664-0.91406 6.2148-2.5625 1.6445-1.6484 2.5703-3.8867 2.5625-6.2148-0.007812-2.332-0.94531-4.5625-2.6016-6.1992l-87.5-87.5c-1.6406-1.6406-3.8672-2.5625-6.1875-2.5625s-4.5469 0.92188-6.1875 2.5625l-87.5 87.5c-1.6406 1.6406-2.5625 3.8672-2.5625 6.1875s0.92188 4.5469 2.5625 6.1875z"/>
  <path d="m302.75 85.75 64.75-48.562 64.75 48.562c3.8633 2.8984 9.3477 2.1172 12.25-1.75 2.8984-3.8633 2.1172-9.3477-1.75-12.25l-70-52.5c-3.1094-2.332-7.3906-2.332-10.5 0l-70 52.5c-1.8555 1.3945-3.082 3.4688-3.4102 5.7656s0.26953 4.6289 1.6602 6.4844c2.9023 3.8672 8.3867 4.6484 12.25 1.75z"/>
  <use x="70" y="691.25" xlink:href="#m"/>
  <use x="102.109375" y="691.25" xlink:href="#h"/>
  <use x="123.683594" y="691.25" xlink:href="#c"/>
  <use x="153.355469" y="691.25" xlink:href="#b"/>
  <use x="182.878906" y="691.25" xlink:href="#a"/>
  <use x="203.792969" y="691.25" xlink:href="#c"/>
  <use x="233.464844" y="691.25" xlink:href="#g"/>
  <use x="280.011719" y="691.25" xlink:href="#f"/>
  <use x="311.328125" y="691.25" xlink:href="#e"/>
  <use x="355.078125" y="691.25" xlink:href="#a"/>
  <use x="375.992187" y="691.25" xlink:href="#d"/>
  <use x="407.140625" y="691.25" xlink:href="#l"/>
  <use x="422.136719" y="691.25" xlink:href="#k"/>
  <use x="453.453125" y="691.25" xlink:href="#b"/>
  <use x="482.976562" y="691.25" xlink:href="#j"/>
  <use x="514.121094" y="691.25" xlink:href="#i"/>
 </g>
</svg>
