<?xml version="1.0" standalone="no"?>
<!DOCTYPE svg PUBLIC "-//W3C//DTD SVG 20010904//EN"
 "http://www.w3.org/TR/2001/REC-SVG-20010904/DTD/svg10.dtd">
<svg version="1.0" xmlns="http://www.w3.org/2000/svg"
 width="50.000000pt" height="54.000000pt" viewBox="0 0 50.000000 54.000000"
 preserveAspectRatio="xMidYMid meet">

<g transform="translate(0.000000,54.000000) scale(0.100000,-0.100000)"
fill="#000000" stroke="none">
<path d="M286 490 c-5 -32 -20 -54 -76 -110 -63 -63 -82 -90 -63 -90 3 0 29
17 57 38 28 20 70 50 94 66 24 16 45 33 48 38 5 8 -42 98 -50 98 -2 0 -6 -18
-10 -40z"/>
<path d="M417 484 c-10 -29 -55 -76 -99 -103 -55 -33 -145 -105 -168 -134 -11
-14 -26 -45 -34 -69 -18 -61 -5 -102 46 -138 51 -37 66 -38 39 -4 -49 63 -16
126 102 196 132 79 165 133 135 227 -12 38 -16 43 -21 25z"/>
<path d="M25 368 c9 -13 15 -44 15 -73 0 -55 21 -139 43 -168 11 -16 12 -14 9
20 -2 26 4 52 21 84 17 31 22 51 16 60 -5 8 -7 26 -4 40 7 33 -8 45 -68 52
-48 7 -48 7 -32 -15z"/>
<path d="M462 301 c-12 -16 -61 -53 -110 -82 -130 -76 -152 -95 -152 -129 0
-16 11 -42 27 -60 24 -29 31 -32 73 -28 31 3 63 16 94 37 56 39 56 49 1 21
-68 -35 -133 -23 -121 21 4 17 30 37 87 69 97 53 132 93 127 145 l-3 37 -23
-31z"/>
</g>
</svg>
