<?xml version="1.0" encoding="UTF-8"?>
<svg width="752pt" height="752pt" version="1.1" viewBox="0 0 752 752" xmlns="http://www.w3.org/2000/svg">
 <g fill="#ff001b">
  <path d="m312.02 367.87c6.6172-30.523 34.594-53.926 67.16-53.926 32.562 0 60.031 23.398 67.148 53.926h111.95c-7.8086-94.117-86.809-168.4-182.9-168.4-96.094 0-175.09 74.285-182.89 168.4h119.54z"/>
  <path d="m446.32 398.4c-6.6055 30.527-35.094 53.926-67.656 53.926s-60.031-23.395-67.164-53.926h-119.02c7.8008 94.125 86.797 168.4 182.89 168.4 96.09 0 175.09-74.277 182.89-168.4z"/>
  <path d="m340.52 383.13c0 21.367 17.289 38.664 38.66 38.664 21.371 0 38.664-17.297 38.664-38.664 0-21.367-17.289-38.664-38.664-38.664-21.371 0-38.66 17.297-38.66 38.664z"/>
 </g>
</svg>
